<?xml version="1.0" encoding="UTF-8"?>
<svg width="32px" height="32px" viewBox="0 0 64 64" version="1.1" xmlns="http://www.w3.org/2000/svg" xmlns:xlink="http://www.w3.org/1999/xlink">
    <!-- Generator: Sketch 45.2 (43514) - http://www.bohemiancoding.com/sketch -->
    <title>IBM Cloud Functions Logo Primary</title>
    <desc>Created with Sketch.</desc>
    <defs></defs>
    <g id="Page-1" stroke="none" stroke-width="1" fill="none" fill-rule="evenodd">
        <g id="LOGO" transform="translate(-384.000000, -308.000000)">
            <g id="IBM-Cloud-Functions-Logo-Primary" transform="translate(384.000000, 308.000000)">
                <g>
                    <path d="M50.5625201,8.10096424 C49.5553618,8.32336914 48.292,9.14241718 47.614,10.8304172 C46.834,12.7644172 46.44,15.6744172 46.228,18.6704172 L47.886,19.0004172 C48.838,19.1844172 53.586,20.4044172 53.612,26.4564172 C53.636,32.5164172 48.9,33.7764172 47.994,33.9584172 L45.902,34.3944172 C45.47,46.5924172 41.762,55.8044172 34.856,61.8084172 C34.572,62.0544172 34.284,62.2784172 34,62.5064172 C41.242,61.9564172 48.328,58.9684172 53.868,53.4304172 C66.184,41.1164172 66.184,21.1484172 53.868,8.83241718 C53.686,8.65041718 52.4194189,7.69091608 50.5625201,8.10096424 Z" id="Fill-1-Copy-3" fill="#50E3C2"></path>
                    <path d="M17.161,34.646 L15.189,34.244 C14.237,34.058 9.493,32.816 9.493,26.762 C9.493,20.704 14.239,19.466 15.147,19.286 L18.353,18.632 C19.981,11.022 23.301,5 28.253,0.696 C28.535,0.452 28.821,0.228 29.107,0 C21.865,0.552 14.775,3.54 9.237,9.076 C-2.79002343,21.1049765 -3.0722196,40.4272657 8.3904115,52.7947706 C9.97897604,54.2993655 14.7895743,53.5467312 15.911,50.436 C16.925,46.788 17.123,40.794 17.161,34.646 Z" id="Fill-4-Copy-3" fill="#50E3C2"></path>
                    <path d="M13.0547972,62.908 C13.1787972,62.928 14.1587972,63.07 15.6767972,63.07 C19.1427972,63.07 25.4147972,62.326 30.7587972,57.684 C36.9047972,52.34 39.9367972,43.508 39.7767972,31.446 L39.7767972,30.764 C39.7767972,30.474 39.7787972,30.2 39.7787972,29.914 L46.6047972,28.488 C47.4147972,28.326 47.4527972,27.684 47.4487972,26.884 C47.4467972,26.086 47.3987972,25.45 46.5887972,25.294 L39.8487972,23.956 C40.1547972,11.19 41.7487972,3.632 49.5247972,3.528 C50.4027972,3.516 50.5147972,2.83 50.5787972,1.954 C50.6387972,1.076 50.6287972,0.298 49.7587972,0.164 C49.6387972,0.144 48.6587972,0 47.1407972,0 C43.6767972,0 37.4007972,0.744 32.0587972,5.384 C27.3287972,9.498 24.4627972,15.704 23.4567972,23.848 L16.2187972,25.324 C15.4087972,25.484 15.3647972,26.12 15.3647972,26.922 C15.3647972,27.72 15.4087972,28.358 16.2187972,28.518 L23.0767972,29.914 C23.0687972,30.492 23.0347972,31.04 23.0407972,31.632 L23.0407972,32.29 C23.0287972,49.168 22.3667972,59.422 13.2907972,59.544 C12.4107972,59.556 12.0707972,60.242 12.0087972,61.116 C11.9487972,61.996 12.1847972,62.774 13.0547972,62.908" id="Fill-7-Copy-2" fill="#236B5B"></path>
                </g>
            </g>
        </g>
    </g>
</svg>
